HIERARCHY
ROOT Hips
{
	OFFSET 0.000000 0.000000 0.000000
	CHANNELS 6 Xposition Yposition Zposition Xrotation Yrotation Zrotation
	JOINT LeftUpLeg_virtual
	{
		OFFSET 0.000000 0.000000 0.000000
		CHANNELS 3 Xrotation Yrotation Zrotation
		JOINT LeftUpLeg
		{
			OFFSET 10.205400 -3.823500 0.155100
			CHANNELS 3 Xrotation Yrotation Zrotation
			JOINT LeftLeg
			{
				OFFSET 0.708757 -12.982077 0.567790
				CHANNELS 3 Xrotation Yrotation Zrotation
				JOINT LeftFoot
				{
					OFFSET -0.708756 -10.717838 -2.184338
					CHANNELS 3 Xrotation Yrotation Zrotation
					JOINT LeftToeBase
					{
						OFFSET 0.108149 -7.191104 7.560241
						CHANNELS 3 Xrotation Yrotation Zrotation
						JOINT LeftToe_End
						{
							OFFSET 0.070230 0.081724 4.490308
							CHANNELS 3 Xrotation Yrotation Zrotation
							End Site
							{
								OFFSET 0 0 0
							}
						}
					}
				}
			}
		}
	}
	JOINT RightUpLeg_virtual
	{
		OFFSET 0.000000 0.000000 0.000000
		CHANNELS 3 Xrotation Yrotation Zrotation
		JOINT RightUpLeg
		{
			OFFSET -10.205400 -3.823500 0.005500
			CHANNELS 3 Xrotation Yrotation Zrotation
			JOINT RightLeg
			{
				OFFSET -0.708756 -12.982134 0.610632
				CHANNELS 3 Xrotation Yrotation Zrotation
				JOINT RightFoot
				{
					OFFSET 0.708754 -10.717769 -1.945823
					CHANNELS 3 Xrotation Yrotation Zrotation
					JOINT RightToeBase
					{
						OFFSET -0.108140 -7.191069 7.372968
						CHANNELS 3 Xrotation Yrotation Zrotation
						JOINT RightToe_End
						{
							OFFSET -0.070227 0.081735 4.479403
							CHANNELS 3 Xrotation Yrotation Zrotation
							End Site
							{
								OFFSET 0 0 0
							}
						}
					}
				}
			}
		}
	}
	JOINT Spine_virtual
	{
		OFFSET 0.000000 0.000000 0.000000
		CHANNELS 3 Xrotation Yrotation Zrotation
		JOINT Spine
		{
			OFFSET 0.000000 6.876099 0.125700
			CHANNELS 3 Xrotation Yrotation Zrotation
			JOINT Spine1
			{
				OFFSET 0.000000 5.730043 0.104720
				CHANNELS 3 Xrotation Yrotation Zrotation
				JOINT Spine1_split
				{
					OFFSET 0.000000 5.730043 0.104720
					CHANNELS 3 Xrotation Yrotation Zrotation
					JOINT Spine2
					{
						OFFSET 0.000000 5.730043 0.104720
						CHANNELS 3 Xrotation Yrotation Zrotation
						JOINT Neck_virtual
						{
							OFFSET 0.000000 0.000000 0.000000
							CHANNELS 3 Xrotation Yrotation Zrotation
							JOINT Neck
							{
								OFFSET 0.000000 10.314075 0.188496
								CHANNELS 3 Xrotation Yrotation Zrotation
								JOINT Head
								{
									OFFSET 0.000000 7.643700 -2.377400
									CHANNELS 3 Xrotation Yrotation Zrotation
									JOINT HeadTop_End
									{
										OFFSET 0.000000 43.788605 -13.619600
										CHANNELS 3 Xrotation Yrotation Zrotation
										End Site
										{
											OFFSET 0 0 0
										}
									}
								}
							}
						}
						JOINT LeftShoulder_virtual
						{
							OFFSET 0.000000 0.000000 0.000000
							CHANNELS 3 Xrotation Yrotation Zrotation
							JOINT LeftShoulder
							{
								OFFSET 2.196100 4.412489 0.087492
								CHANNELS 3 Xrotation Yrotation Zrotation
								JOINT LeftShoulder_split
								{
									OFFSET 2.196100 4.412489 0.087492
									CHANNELS 3 Xrotation Yrotation Zrotation
									JOINT LeftArm
									{
										OFFSET 8.771219 -2.981674 -0.026999
										CHANNELS 3 Xrotation Yrotation Zrotation
										JOINT LeftForeArm
										{
											OFFSET 8.512804 0.000000 -0.000000
											CHANNELS 3 Xrotation Yrotation Zrotation
											JOINT LeftHand
											{
												OFFSET 18.484802 0.000000 -0.000000
												CHANNELS 3 Xrotation Yrotation Zrotation
												End Site
												{
													OFFSET 0 0 0
												}
											}
										}
									}
								}
							}
						}
						JOINT RightShoulder_virtual
						{
							OFFSET 0.000000 0.000000 0.000000
							CHANNELS 3 Xrotation Yrotation Zrotation
							JOINT RightShoulder
							{
								OFFSET -2.196100 4.412496 0.070690
								CHANNELS 3 Xrotation Yrotation Zrotation
								JOINT RightShoulder_split
								{
									OFFSET -2.196100 4.412496 0.070690
									CHANNELS 3 Xrotation Yrotation Zrotation
									JOINT RightArm
									{
										OFFSET -8.771282 -2.981682 -0.094208
										CHANNELS 3 Xrotation Yrotation Zrotation
										JOINT RightForeArm
										{
											OFFSET -8.494598 0.000000 0.000000
											CHANNELS 3 Xrotation Yrotation Zrotation
											JOINT RightHand
											{
												OFFSET -18.483803 0.000000 0.000001
												CHANNELS 3 Xrotation Yrotation Zrotation
												End Site
												{
													OFFSET 0 0 0
												}
											}
										}
									}
								}
							}
						}
					}
				}
			}
		}
	}
}
MOTION
Frames: 7
Frame Time: 0.03333333
1.704331 87.110596 -6.648951 0.000000 0.000000 0.000000 -10.318714 18.677357 12.923267 -12.167563 38.070245 8.623682 3.354030 -16.629713 -4.833487 14.483686 0.659858 -13.383634 -0.586458 -1.211848 7.157437 0.000000 0.000000 0.000000 -6.340603 11.524010 11.249550 17.028382 3.269871 -6.175010 -21.290898 15.234160 7.743791 -20.376300 2.329153 6.406147 4.870030 -1.230809 -13.753382 0.000000 0.000000 0.000000 -4.026451 17.535835 10.493752 -0.500908 -5.060107 2.337298 9.246922 1.585401 3.680857 0.138500 0.404091 -0.096201 0.000000 0.000000 0.000000 10.741039 4.585181 3.059671 1.198905 0.155738 -11.333937 -16.916850 -40.653651 -31.921507 0.000000 0.000000 0.000000 9.537497 3.263649 2.123543 0.651002 7.762167 -4.640234 10.699340 -7.446650 0.668893 10.515184 -1.331847 -56.450438 4.417422 -38.472290 -2.679139 0.000000 0.000000 0.000000 10.128140 3.290080 3.216610 -4.653232 3.954265 7.476532 5.914109 1.333453 2.172297 3.182273 5.862913 50.042597 -11.400194 35.389348 10.586069 0.000000 0.000000 0.000000 
1.666781 87.075119 -6.857105 0.000000 0.000000 0.000000 -10.411947 19.039084 12.911809 -12.213479 37.700646 8.769654 3.690313 -16.452835 -4.701419 14.230739 0.807005 -13.385770 -0.413327 -1.255801 7.233058 0.000000 0.000000 0.000000 -6.483885 11.950329 11.178986 16.756452 3.023973 -5.886937 -21.178154 15.164311 7.643016 -20.382808 2.413974 6.109241 4.495404 -1.149863 -13.886240 0.000000 0.000000 0.000000 -4.172286 17.587764 10.547170 -0.576634 -5.061854 2.412115 9.203065 1.600761 3.666502 0.097024 0.363338 -0.091981 0.000000 0.000000 0.000000 10.655759 4.605467 2.995178 0.914817 0.170201 -11.397946 -16.758042 -40.160925 -31.685067 0.000000 0.000000 0.000000 9.529627 3.246366 2.122108 0.625733 7.491573 -4.348078 10.289657 -6.745534 0.337894 9.823353 -1.387842 -56.311583 4.419013 -38.340037 -2.610955 0.000000 0.000000 0.000000 10.138146 3.280540 3.184320 -4.653443 3.720391 7.206784 6.174209 1.294556 1.905030 3.367368 6.494307 49.692768 -11.729744 36.432499 10.892220 0.000000 0.000000 0.000000 
1.597734 86.936958 -6.998901 0.000000 0.000000 0.000000 -10.300099 19.489685 12.786107 -12.483468 37.648580 8.834373 4.068524 -15.814273 -4.528205 12.974206 1.641369 -12.689752 -0.577549 -1.300380 7.341174 0.000000 0.000000 0.000000 -6.356809 12.412069 11.024278 16.079910 2.413277 -5.652800 -20.268774 15.132774 7.607833 -20.717958 2.688980 6.130143 3.793817 -0.932280 -14.245076 0.000000 0.000000 0.000000 -3.916247 17.972828 10.414847 -0.705750 -4.992084 2.521538 9.104363 1.521772 3.663600 0.067132 0.275432 -0.107208 0.000000 0.000000 0.000000 10.562228 4.568232 2.971032 0.281256 0.339027 -11.455981 -16.492089 -39.628177 -31.325495 0.000000 0.000000 0.000000 9.457101 3.169198 2.203842 0.601566 7.389696 -4.152251 9.976104 -6.115925 0.041559 9.137357 -1.635725 -56.156156 4.473545 -38.499727 -2.368936 0.000000 0.000000 0.000000 10.086079 3.168349 3.161254 -4.623886 3.541265 6.699380 6.444482 1.000412 1.953329 4.730481 8.528132 49.121546 -11.968410 37.779907 10.936252 0.000000 0.000000 0.000000 
1.519540 86.707939 -7.090633 0.000000 0.000000 0.000000 -9.984444 19.890337 12.555383 -13.125954 37.869806 8.784060 4.833056 -15.067233 -4.289713 11.192250 2.684594 -11.564576 -0.987494 -1.330940 7.443795 0.000000 0.000000 0.000000 -6.011686 12.944065 10.805998 15.106900 1.463070 -5.515677 -18.938885 15.070881 7.595728 -21.635922 3.044159 6.362498 3.425304 -0.675503 -14.721544 0.000000 0.000000 0.000000 -3.250797 18.630017 10.110243 -0.868434 -4.853281 2.588683 8.989331 1.342138 3.673248 0.067937 0.146241 -0.118698 0.000000 0.000000 0.000000 10.510785 4.471317 2.983752 -0.607612 0.642765 -11.462937 -16.221003 -39.044807 -30.816441 0.000000 0.000000 0.000000 9.341073 3.042809 2.346627 0.591856 7.450054 -4.102510 9.780706 -5.797980 -0.037542 8.461984 -2.241961 -55.899238 4.497082 -38.862052 -2.048564 0.000000 0.000000 0.000000 9.967285 2.960862 3.149797 -4.580784 3.455864 6.110344 6.655952 0.447547 2.158610 7.014314 11.531587 48.246073 -12.198594 39.517466 10.791363 0.000000 0.000000 0.000000 
1.452003 86.446449 -7.122847 0.000000 0.000000 0.000000 -9.455303 20.255607 12.265994 -14.360466 38.231192 8.760940 6.419705 -14.682402 -3.948695 9.550821 3.338400 -10.459648 -1.327264 -1.320636 7.500598 0.000000 0.000000 0.000000 -5.539863 13.468863 10.569956 14.136516 0.350564 -5.424636 -17.674791 14.823006 7.533958 -23.073318 3.276141 6.600471 3.632485 -0.464703 -15.082328 0.000000 0.000000 0.000000 -2.312635 19.465848 9.697891 -1.020082 -4.662948 2.573080 8.897024 1.088938 3.714136 0.081867 0.024434 -0.107763 0.000000 0.000000 0.000000 10.543967 4.314951 3.038595 -1.653378 1.008425 -11.367748 -16.155612 -38.489933 -30.227583 0.000000 0.000000 0.000000 9.223917 2.885200 2.531574 0.617440 7.698357 -4.178346 9.676754 -5.601743 -0.101815 7.849168 -3.422012 -55.366698 4.307814 -39.468142 -1.765097 0.000000 0.000000 0.000000 9.803338 2.680182 3.167057 -4.545263 3.493366 5.575217 6.587599 -0.512562 2.352243 10.048107 14.995204 46.852185 -12.613911 41.959679 10.665760 0.000000 0.000000 0.000000 
1.424318 86.200905 -7.095797 0.000000 0.000000 0.000000 -8.786054 20.659123 11.950154 -16.351625 38.642362 8.806691 8.909011 -14.800953 -3.477895 8.543422 3.234032 -9.496626 -1.361053 -1.262082 7.580859 0.000000 0.000000 0.000000 -4.856663 14.061369 10.302233 13.367363 -0.736463 -5.288921 -16.928588 14.308154 7.404358 -24.552058 3.193150 6.848500 4.220790 -0.334247 -15.038389 0.000000 0.000000 0.000000 -1.237889 20.323300 9.200990 -1.156366 -4.454736 2.485240 8.876189 0.800625 3.785331 0.111253 -0.079977 -0.086880 0.000000 0.000000 0.000000 10.666643 4.114022 3.128325 -2.750800 1.389029 -11.152716 -16.528566 -38.016597 -29.627694 0.000000 0.000000 0.000000 9.144253 2.711100 2.735090 0.691116 8.098774 -4.346405 9.404684 -5.523923 -0.129876 7.268709 -5.064936 -54.436987 3.830461 -40.351084 -1.573856 0.000000 0.000000 0.000000 9.640779 2.350377 3.213670 -4.533308 3.675417 5.162933 6.536070 -1.374329 2.520048 13.539506 18.268099 44.760992 -13.516780 45.519830 10.932129 0.000000 0.000000 0.000000 
1.438259 86.026985 -7.002579 0.000000 0.000000 0.000000 -7.995513 21.162800 11.574673 -18.939389 38.849412 8.953088 11.833335 -15.387083 -2.908751 8.397953 2.304578 -8.758405 -1.032621 -1.191802 7.724959 0.000000 0.000000 0.000000 -3.995892 14.649207 9.988802 12.856194 -1.557167 -5.034231 -17.068296 13.589192 7.254755 -25.334381 2.832959 7.267349 4.234232 -0.112217 -14.319005 0.000000 0.000000 0.000000 -0.169600 21.190841 8.623278 -1.243457 -4.264345 2.350868 8.959378 0.510039 3.860952 0.139294 -0.139298 -0.058863 0.000000 0.000000 0.000000 10.883400 3.878457 3.251161 -3.792775 1.743443 -10.845679 -17.315687 -37.596592 -29.029284 0.000000 0.000000 0.000000 9.106655 2.533575 2.914761 0.797262 8.630029 -4.546633 8.963618 -5.568378 -0.021397 6.814318 -6.888000 -53.155097 3.074541 -41.607484 -1.450203 0.000000 0.000000 0.000000 9.513827 1.992548 3.281866 -4.549605 3.911210 4.879338 6.816977 -1.760600 2.526496 17.164016 20.983622 42.094265 -15.157448 50.257102 11.932323 0.000000 0.000000 0.000000 
